<?xml version="1.0" encoding="UTF-8" standalone="no"?>
<!DOCTYPE svg PUBLIC "-//W3C//DTD SVG 1.1//EN"
 "http://www.w3.org/Graphics/SVG/1.1/DTD/svg11.dtd">
<!-- Generated by graphviz version 2.46.0 (20210119.1425)
 -->
<!-- Title: dependencies Pages: 1 -->
<svg width="2790pt" height="284pt"
 viewBox="0.00 0.00 2790.00 284.00" xmlns="http://www.w3.org/2000/svg" xmlns:xlink="http://www.w3.org/1999/xlink">
<g id="graph0" class="graph" transform="scale(1 1) rotate(0) translate(4 280)">
<title>dependencies</title>
<polygon fill="white" stroke="transparent" points="-4,4 -4,-280 2786,-280 2786,4 -4,4"/>
<text text-anchor="start" x="1370.01" y="-42.4" font-family="sans-serif" font-weight="bold" font-size="14.00">Legend</text>
<polygon fill="#ffffb3" stroke="transparent" points="1157,-10 1157,-30 1177,-30 1177,-10 1157,-10"/>
<text text-anchor="start" x="1180.63" y="-15.4" font-family="sans-serif" font-size="14.00"> &#160;Declarations</text>
<polygon fill="#8dd3c7" stroke="transparent" points="1270,-10 1270,-30 1290,-30 1290,-10 1270,-10"/>
<text text-anchor="start" x="1293.73" y="-15.4" font-family="sans-serif" font-size="14.00"> &#160;Module</text>
<polygon fill="#80b1d3" stroke="transparent" points="1356,-10 1356,-30 1376,-30 1376,-10 1356,-10"/>
<text text-anchor="start" x="1379.78" y="-15.4" font-family="sans-serif" font-size="14.00"> &#160;Bootstrap</text>
<polygon fill="#fdb462" stroke="transparent" points="1453,-10 1453,-30 1473,-30 1473,-10 1453,-10"/>
<text text-anchor="start" x="1476.67" y="-15.4" font-family="sans-serif" font-size="14.00"> &#160;Providers</text>
<polygon fill="#fb8072" stroke="transparent" points="1549,-10 1549,-30 1569,-30 1569,-10 1549,-10"/>
<text text-anchor="start" x="1572.73" y="-15.4" font-family="sans-serif" font-size="14.00"> &#160;Exports</text>
<g id="clust1" class="cluster">
<title>cluster_AppModule</title>
<polygon fill="none" stroke="black" stroke-dasharray="1,5" points="8,-70 8,-268 2774,-268 2774,-70 8,-70"/>
</g>
<g id="clust19" class="cluster">
<title>cluster_AppModule_imports</title>
<polygon fill="none" stroke="black" points="2622,-78 2622,-130 2766,-130 2766,-78 2622,-78"/>
</g>
<g id="clust21" class="cluster">
<title>cluster_AppModule_bootstrap</title>
<polygon fill="none" stroke="black" points="1365,-208 1365,-260 1489,-260 1489,-208 1365,-208"/>
</g>
<g id="clust2" class="cluster">
<title>cluster_AppModule_declarations</title>
<polygon fill="none" stroke="black" points="16,-78 16,-130 2614,-130 2614,-78 16,-78"/>
</g>
<!-- AlertasComponent -->
<g id="node1" class="node">
<title>AlertasComponent</title>
<polygon fill="#ffffb3" stroke="black" points="2605.75,-122 2484.25,-122 2484.25,-86 2605.75,-86 2605.75,-122"/>
<text text-anchor="middle" x="2545" y="-99.8" font-family="Times,serif" font-size="14.00">AlertasComponent</text>
</g>
<!-- AppModule -->
<g id="node17" class="node">
<title>AppModule</title>
<polygon fill="#8dd3c7" stroke="black" points="1468.66,-187 1465.66,-191 1444.66,-191 1441.66,-187 1385.34,-187 1385.34,-151 1468.66,-151 1468.66,-187"/>
<text text-anchor="middle" x="1427" y="-164.8" font-family="Times,serif" font-size="14.00">AppModule</text>
</g>
<!-- AlertasComponent&#45;&gt;AppModule -->
<g id="edge1" class="edge">
<title>AlertasComponent&#45;&gt;AppModule</title>
<path fill="none" stroke="black" d="M2545,-122.16C2545,-144.35 2545,-179 2545,-179 2545,-179 1478.79,-179 1478.79,-179"/>
<polygon fill="black" stroke="black" points="1478.79,-175.5 1468.79,-179 1478.79,-182.5 1478.79,-175.5"/>
</g>
<!-- AppComponent -->
<g id="node2" class="node">
<title>AppComponent</title>
<polygon fill="#ffffb3" stroke="black" points="2465.94,-122 2360.06,-122 2360.06,-86 2465.94,-86 2465.94,-122"/>
<text text-anchor="middle" x="2413" y="-99.8" font-family="Times,serif" font-size="14.00">AppComponent</text>
</g>
<!-- AppComponent&#45;&gt;AppModule -->
<g id="edge2" class="edge">
<title>AppComponent&#45;&gt;AppModule</title>
<path fill="none" stroke="black" d="M2413,-122.28C2413,-143.32 2413,-175 2413,-175 2413,-175 1478.74,-175 1478.74,-175"/>
<polygon fill="black" stroke="black" points="1478.74,-171.5 1468.74,-175 1478.74,-178.5 1478.74,-171.5"/>
</g>
<!-- CadastrarComponent -->
<g id="node3" class="node">
<title>CadastrarComponent</title>
<polygon fill="#ffffb3" stroke="black" points="2342.47,-122 2207.53,-122 2207.53,-86 2342.47,-86 2342.47,-122"/>
<text text-anchor="middle" x="2275" y="-99.8" font-family="Times,serif" font-size="14.00">CadastrarComponent</text>
</g>
<!-- CadastrarComponent&#45;&gt;AppModule -->
<g id="edge3" class="edge">
<title>CadastrarComponent&#45;&gt;AppModule</title>
<path fill="none" stroke="black" d="M2275,-122.31C2275,-142.15 2275,-171 2275,-171 2275,-171 1478.76,-171 1478.76,-171"/>
<polygon fill="black" stroke="black" points="1478.76,-167.5 1468.76,-171 1478.76,-174.5 1478.76,-167.5"/>
</g>
<!-- ConexaoComponent -->
<g id="node4" class="node">
<title>ConexaoComponent</title>
<polygon fill="#ffffb3" stroke="black" points="2189.6,-122 2058.4,-122 2058.4,-86 2189.6,-86 2189.6,-122"/>
<text text-anchor="middle" x="2124" y="-99.8" font-family="Times,serif" font-size="14.00">ConexaoComponent</text>
</g>
<!-- ConexaoComponent&#45;&gt;AppModule -->
<g id="edge4" class="edge">
<title>ConexaoComponent&#45;&gt;AppModule</title>
<path fill="none" stroke="black" d="M2124,-122.22C2124,-140.83 2124,-167 2124,-167 2124,-167 1478.77,-167 1478.77,-167"/>
<polygon fill="black" stroke="black" points="1478.77,-163.5 1468.77,-167 1478.77,-170.5 1478.77,-163.5"/>
</g>
<!-- EditPostagemComponent -->
<g id="node5" class="node">
<title>EditPostagemComponent</title>
<polygon fill="#ffffb3" stroke="black" points="2040.6,-122 1881.4,-122 1881.4,-86 2040.6,-86 2040.6,-122"/>
<text text-anchor="middle" x="1961" y="-99.8" font-family="Times,serif" font-size="14.00">EditPostagemComponent</text>
</g>
<!-- EditPostagemComponent&#45;&gt;AppModule -->
<g id="edge5" class="edge">
<title>EditPostagemComponent&#45;&gt;AppModule</title>
<path fill="none" stroke="black" d="M1961,-122.02C1961,-139.37 1961,-163 1961,-163 1961,-163 1478.9,-163 1478.9,-163"/>
<polygon fill="black" stroke="black" points="1478.9,-159.5 1468.9,-163 1478.9,-166.5 1478.9,-159.5"/>
</g>
<!-- EditUsuarioComponent -->
<g id="node6" class="node">
<title>EditUsuarioComponent</title>
<polygon fill="#ffffb3" stroke="black" points="1863.48,-122 1714.52,-122 1714.52,-86 1863.48,-86 1863.48,-122"/>
<text text-anchor="middle" x="1789" y="-99.8" font-family="Times,serif" font-size="14.00">EditUsuarioComponent</text>
</g>
<!-- EditUsuarioComponent&#45;&gt;AppModule -->
<g id="edge6" class="edge">
<title>EditUsuarioComponent&#45;&gt;AppModule</title>
<path fill="none" stroke="black" d="M1789,-122.01C1789,-138.05 1789,-159 1789,-159 1789,-159 1478.88,-159 1478.88,-159"/>
<polygon fill="black" stroke="black" points="1478.88,-155.5 1468.88,-159 1478.88,-162.5 1478.88,-155.5"/>
</g>
<!-- EmpresaB2wComponent -->
<g id="node7" class="node">
<title>EmpresaB2wComponent</title>
<polygon fill="#ffffb3" stroke="black" points="1696.25,-122 1539.75,-122 1539.75,-86 1696.25,-86 1696.25,-122"/>
<text text-anchor="middle" x="1618" y="-99.8" font-family="Times,serif" font-size="14.00">EmpresaB2wComponent</text>
</g>
<!-- EmpresaB2wComponent&#45;&gt;AppModule -->
<g id="edge7" class="edge">
<title>EmpresaB2wComponent&#45;&gt;AppModule</title>
<path fill="none" stroke="black" d="M1618,-122.12C1618,-136.78 1618,-155 1618,-155 1618,-155 1478.92,-155 1478.92,-155"/>
<polygon fill="black" stroke="black" points="1478.92,-151.5 1468.92,-155 1478.92,-158.5 1478.92,-151.5"/>
</g>
<!-- EmpresaConductorComponent -->
<g id="node8" class="node">
<title>EmpresaConductorComponent</title>
<polygon fill="#ffffb3" stroke="black" points="1521.91,-122 1332.09,-122 1332.09,-86 1521.91,-86 1521.91,-122"/>
<text text-anchor="middle" x="1427" y="-99.8" font-family="Times,serif" font-size="14.00">EmpresaConductorComponent</text>
</g>
<!-- EmpresaConductorComponent&#45;&gt;AppModule -->
<g id="edge8" class="edge">
<title>EmpresaConductorComponent&#45;&gt;AppModule</title>
<path fill="none" stroke="black" d="M1427,-122.11C1427,-122.11 1427,-140.99 1427,-140.99"/>
<polygon fill="black" stroke="black" points="1423.5,-140.99 1427,-150.99 1430.5,-140.99 1423.5,-140.99"/>
</g>
<!-- EmpresaItauComponent -->
<g id="node9" class="node">
<title>EmpresaItauComponent</title>
<polygon fill="#ffffb3" stroke="black" points="1314.08,-122 1161.92,-122 1161.92,-86 1314.08,-86 1314.08,-122"/>
<text text-anchor="middle" x="1238" y="-99.8" font-family="Times,serif" font-size="14.00">EmpresaItauComponent</text>
</g>
<!-- EmpresaItauComponent&#45;&gt;AppModule -->
<g id="edge9" class="edge">
<title>EmpresaItauComponent&#45;&gt;AppModule</title>
<path fill="none" stroke="black" d="M1238,-122.12C1238,-136.78 1238,-155 1238,-155 1238,-155 1375.05,-155 1375.05,-155"/>
<polygon fill="black" stroke="black" points="1375.05,-158.5 1385.05,-155 1375.05,-151.5 1375.05,-158.5"/>
</g>
<!-- EmpresaMagaluComponent -->
<g id="node10" class="node">
<title>EmpresaMagaluComponent</title>
<polygon fill="#ffffb3" stroke="black" points="1143.57,-122 970.43,-122 970.43,-86 1143.57,-86 1143.57,-122"/>
<text text-anchor="middle" x="1057" y="-99.8" font-family="Times,serif" font-size="14.00">EmpresaMagaluComponent</text>
</g>
<!-- EmpresaMagaluComponent&#45;&gt;AppModule -->
<g id="edge10" class="edge">
<title>EmpresaMagaluComponent&#45;&gt;AppModule</title>
<path fill="none" stroke="black" d="M1057,-122.01C1057,-138.05 1057,-159 1057,-159 1057,-159 1375.28,-159 1375.28,-159"/>
<polygon fill="black" stroke="black" points="1375.28,-162.5 1385.28,-159 1375.28,-155.5 1375.28,-162.5"/>
</g>
<!-- EmpresaMc1Component -->
<g id="node11" class="node">
<title>EmpresaMc1Component</title>
<polygon fill="#ffffb3" stroke="black" points="951.97,-122 796.03,-122 796.03,-86 951.97,-86 951.97,-122"/>
<text text-anchor="middle" x="874" y="-99.8" font-family="Times,serif" font-size="14.00">EmpresaMc1Component</text>
</g>
<!-- EmpresaMc1Component&#45;&gt;AppModule -->
<g id="edge11" class="edge">
<title>EmpresaMc1Component&#45;&gt;AppModule</title>
<path fill="none" stroke="black" d="M874,-122.02C874,-139.37 874,-163 874,-163 874,-163 1374.98,-163 1374.98,-163"/>
<polygon fill="black" stroke="black" points="1374.98,-166.5 1384.98,-163 1374.98,-159.5 1374.98,-166.5"/>
</g>
<!-- EmpresaMercadolivreComponent -->
<g id="node12" class="node">
<title>EmpresaMercadolivreComponent</title>
<polygon fill="#ffffb3" stroke="black" points="777.72,-122 572.28,-122 572.28,-86 777.72,-86 777.72,-122"/>
<text text-anchor="middle" x="675" y="-99.8" font-family="Times,serif" font-size="14.00">EmpresaMercadolivreComponent</text>
</g>
<!-- EmpresaMercadolivreComponent&#45;&gt;AppModule -->
<g id="edge12" class="edge">
<title>EmpresaMercadolivreComponent&#45;&gt;AppModule</title>
<path fill="none" stroke="black" d="M675,-122.22C675,-140.83 675,-167 675,-167 675,-167 1375.23,-167 1375.23,-167"/>
<polygon fill="black" stroke="black" points="1375.23,-170.5 1385.23,-167 1375.23,-163.5 1375.23,-170.5"/>
</g>
<!-- EntrarComponent -->
<g id="node13" class="node">
<title>EntrarComponent</title>
<polygon fill="#ffffb3" stroke="black" points="554.31,-122 437.69,-122 437.69,-86 554.31,-86 554.31,-122"/>
<text text-anchor="middle" x="496" y="-99.8" font-family="Times,serif" font-size="14.00">EntrarComponent</text>
</g>
<!-- EntrarComponent&#45;&gt;AppModule -->
<g id="edge13" class="edge">
<title>EntrarComponent&#45;&gt;AppModule</title>
<path fill="none" stroke="black" d="M496,-122.31C496,-142.15 496,-171 496,-171 496,-171 1375.19,-171 1375.19,-171"/>
<polygon fill="black" stroke="black" points="1375.19,-174.5 1385.19,-171 1375.19,-167.5 1375.19,-174.5"/>
</g>
<!-- HomeComponent -->
<g id="node14" class="node">
<title>HomeComponent</title>
<polygon fill="#ffffb3" stroke="black" points="419.55,-122 304.45,-122 304.45,-86 419.55,-86 419.55,-122"/>
<text text-anchor="middle" x="362" y="-99.8" font-family="Times,serif" font-size="14.00">HomeComponent</text>
</g>
<!-- HomeComponent&#45;&gt;AppModule -->
<g id="edge14" class="edge">
<title>HomeComponent&#45;&gt;AppModule</title>
<path fill="none" stroke="black" d="M362,-122.28C362,-143.32 362,-175 362,-175 362,-175 1375.25,-175 1375.25,-175"/>
<polygon fill="black" stroke="black" points="1375.25,-178.5 1385.25,-175 1375.25,-171.5 1375.25,-178.5"/>
</g>
<!-- PerfilComponent -->
<g id="node15" class="node">
<title>PerfilComponent</title>
<polygon fill="#ffffb3" stroke="black" points="286.43,-122 173.57,-122 173.57,-86 286.43,-86 286.43,-122"/>
<text text-anchor="middle" x="230" y="-99.8" font-family="Times,serif" font-size="14.00">PerfilComponent</text>
</g>
<!-- PerfilComponent&#45;&gt;AppModule -->
<g id="edge15" class="edge">
<title>PerfilComponent&#45;&gt;AppModule</title>
<path fill="none" stroke="black" d="M230,-122.16C230,-144.35 230,-179 230,-179 230,-179 1375.1,-179 1375.1,-179"/>
<polygon fill="black" stroke="black" points="1375.1,-182.5 1385.1,-179 1375.1,-175.5 1375.1,-182.5"/>
</g>
<!-- PrincipalComponent -->
<g id="node16" class="node">
<title>PrincipalComponent</title>
<polygon fill="#ffffb3" stroke="black" points="155.88,-122 24.12,-122 24.12,-86 155.88,-86 155.88,-122"/>
<text text-anchor="middle" x="90" y="-99.8" font-family="Times,serif" font-size="14.00">PrincipalComponent</text>
</g>
<!-- PrincipalComponent&#45;&gt;AppModule -->
<g id="edge16" class="edge">
<title>PrincipalComponent&#45;&gt;AppModule</title>
<path fill="none" stroke="black" d="M90,-122.32C90,-145.66 90,-183 90,-183 90,-183 1375.15,-183 1375.15,-183"/>
<polygon fill="black" stroke="black" points="1375.15,-186.5 1385.15,-183 1375.15,-179.5 1375.15,-186.5"/>
</g>
<!-- AppComponent  -->
<g id="node19" class="node">
<title>AppComponent </title>
<polygon fill="#80b1d3" stroke="black" points="1481.44,-252 1372.56,-252 1372.56,-216 1481.44,-216 1481.44,-252"/>
<text text-anchor="middle" x="1427" y="-229.8" font-family="Times,serif" font-size="14.00">AppComponent </text>
</g>
<!-- AppModule&#45;&gt;AppComponent  -->
<g id="edge18" class="edge">
<title>AppModule&#45;&gt;AppComponent </title>
<path fill="none" stroke="black" stroke-dasharray="1,5" d="M1427,-187.11C1427,-187.11 1427,-205.99 1427,-205.99"/>
<polygon fill="black" stroke="black" points="1423.5,-205.99 1427,-215.99 1430.5,-205.99 1423.5,-205.99"/>
</g>
<!-- AppRoutingModule -->
<g id="node18" class="node">
<title>AppRoutingModule</title>
<polygon fill="#8dd3c7" stroke="black" points="2758.27,-122 2755.27,-126 2734.27,-126 2731.27,-122 2629.73,-122 2629.73,-86 2758.27,-86 2758.27,-122"/>
<text text-anchor="middle" x="2694" y="-99.8" font-family="Times,serif" font-size="14.00">AppRoutingModule</text>
</g>
<!-- AppRoutingModule&#45;&gt;AppModule -->
<g id="edge17" class="edge">
<title>AppRoutingModule&#45;&gt;AppModule</title>
<path fill="none" stroke="black" d="M2694,-122.32C2694,-145.66 2694,-183 2694,-183 2694,-183 1478.79,-183 1478.79,-183"/>
<polygon fill="black" stroke="black" points="1478.79,-179.5 1468.79,-183 1478.79,-186.5 1478.79,-179.5"/>
</g>
</g>
</svg>
